<?xml version="1.0" encoding="utf-8"?>
<!-- Generator: Adobe Illustrator 27.5.0, SVG Export Plug-In . SVG Version: 6.00 Build 0)  -->
<svg version="1.1" xmlns="http://www.w3.org/2000/svg" xmlns:xlink="http://www.w3.org/1999/xlink" x="0px" y="0px"
	 viewBox="0 0 3710 3710" style="enable-background:new 0 0 3710 3710;" xml:space="preserve">
<g id="Background">
	<g>
		<g>
			<rect style="fill:#FFFFFF;" width="3710" height="3710"/>
		</g>
	</g>
</g>
<g id="Illustration">
	<g>
		<circle style="fill:#F4F7FA;" cx="1854.42" cy="1873.71" r="1456.131"/>
		<g>
			<linearGradient id="SVGID_1_" gradientUnits="userSpaceOnUse" x1="1650.4484" y1="2952.9849" x2="1448.6121" y2="3037.7561">
				<stop  offset="0" style="stop-color:#40447E"/>
				<stop  offset="0.9964" style="stop-color:#3C3B6B"/>
			</linearGradient>
			<path style="fill:url(#SVGID_1_);" d="M3310.552,2843.804l-2874.726-23.662v70.011c0,19.002,12.539,35.16,29.52,38.039
				l812.887,137.863c9.647,1.636,19.43,2.07,29.165,1.294l1971.915-157.187c17.604-1.403,31.24-17.611,31.24-37.135V2843.804z"/>
			<g>
				
					<linearGradient id="SVGID_00000044867592708101483990000016428646984337191559_" gradientUnits="userSpaceOnUse" x1="1323.2001" y1="2107.0652" x2="1117.01" y2="2193.665">
					<stop  offset="0" style="stop-color:#40447E"/>
					<stop  offset="0.9964" style="stop-color:#3C3B6B"/>
				</linearGradient>
				<path style="fill:url(#SVGID_00000044867592708101483990000016428646984337191559_);" d="M2267.325,2730.314L465.553,2858.39
					c-32.242,2.292-58.456-22.061-58.456-54.399V1508.388c0-32.339,26.215-58.554,58.456-58.554h1801.772
					c26.562,0,48.038,23.698,48.038,52.932v1171.201C2315.364,2703.2,2293.887,2728.425,2267.325,2730.314z"/>
				
					<linearGradient id="SVGID_00000014608162535000988770000005782785324181098880_" gradientUnits="userSpaceOnUse" x1="435.826" y1="2154.1865" x2="2344.093" y2="2154.1865">
					<stop  offset="0" style="stop-color:#40447E"/>
					<stop  offset="0.9964" style="stop-color:#3C3B6B"/>
				</linearGradient>
				<path style="fill:url(#SVGID_00000014608162535000988770000005782785324181098880_);" d="M2296.054,2730.314L494.283,2858.39
					c-32.242,2.292-58.457-22.061-58.457-54.399V1508.388c0-32.339,26.214-58.554,58.457-58.554h1801.772
					c26.563,0,48.039,23.698,48.039,52.932v1171.201C2344.093,2703.2,2322.617,2728.425,2296.054,2730.314z"/>
				
					<linearGradient id="SVGID_00000111164995546120656740000007984352195042017927_" gradientUnits="userSpaceOnUse" x1="1642.0297" y1="1690.1427" x2="174.938" y2="4088.52">
					<stop  offset="0" style="stop-color:#FFC444"/>
					<stop  offset="0.9964" style="stop-color:#F36F56"/>
				</linearGradient>
				<path style="fill:url(#SVGID_00000111164995546120656740000007984352195042017927_);" d="M2239.924,2647.742L561.762,2758.993
					c-26.238,1.739-47.559-18.249-47.559-44.649V1580.043c0-26.4,21.322-47.891,47.559-48l1678.162-6.986
					c21.912-0.092,39.636,19.327,39.636,43.373v1033.146C2279.56,2625.622,2261.836,2646.29,2239.924,2647.742z"/>
				<path style="fill:#FFFFFF;" d="M1458.802,1485.272c0,12.038-9.274,21.825-20.725,21.861
					c-11.466,0.035-20.771-9.717-20.771-21.783c0-12.066,9.305-21.853,20.771-21.861
					C1449.528,1463.48,1458.802,1473.233,1458.802,1485.272z"/>
				<path style="opacity:0.48;fill:#FFFFFF;" d="M1861.946,2374.975c-138.901-75.173-248.117,20.08-353.519-73.902
					c-63.902-56.978-32.529-99.467-111.158-184.614c-87.088-94.307-143.788-62.606-231.31-147.484
					c-110.666-107.322-55.317-190.821-150.642-267.875c-115.642-93.477-240.357-6.958-350.441-96.606
					c-47.48-38.666-73.531-94.878-87.135-154.661H470.028c-18.875,0-34.202,15.387-34.202,34.37v1343.004
					c0,18.982,15.328,33.276,34.202,31.928l1836.301-131.109c9.012-0.643,17.002-5.936,22.131-13.608
					c-134.422-4.928-217.005-50.255-269.794-97.112C1955.397,2525.64,1973.309,2435.243,1861.946,2374.975z"/>
			</g>
			
				<linearGradient id="SVGID_00000168830477814262754500000005716727120495312285_" gradientUnits="userSpaceOnUse" x1="435.826" y1="2863.9924" x2="3310.552" y2="2863.9924">
				<stop  offset="0" style="stop-color:#40447E"/>
				<stop  offset="0.9964" style="stop-color:#3C3B6B"/>
			</linearGradient>
			<path style="fill:url(#SVGID_00000168830477814262754500000005716727120495312285_);" d="M2367.868,2724.506L435.826,2859.318
				l842.406,142.869c9.647,1.636,19.43,2.071,29.165,1.294l2003.155-159.677l-911.95-118.383
				C2388.403,2724.097,2378.117,2723.791,2367.868,2724.506z"/>
			
				<linearGradient id="SVGID_00000132055138229278907380000009222987259543871390_" gradientUnits="userSpaceOnUse" x1="717.7411" y1="2841.7324" x2="2824.0349" y2="2841.7324">
				<stop  offset="0" style="stop-color:#40447E"/>
				<stop  offset="0.9964" style="stop-color:#3C3B6B"/>
			</linearGradient>
			<polygon style="opacity:0.3;fill:url(#SVGID_00000132055138229278907380000009222987259543871390_);" points="717.741,2862.708 
				2326.224,2748.8 2824.035,2812.902 1229.408,2934.664 			"/>
		</g>
		<g>
			
				<linearGradient id="SVGID_00000072245610125257725310000018124129043718428315_" gradientUnits="userSpaceOnUse" x1="2396.0081" y1="361.8024" x2="1072.6216" y2="3008.5696">
				<stop  offset="0" style="stop-color:#FF9085"/>
				<stop  offset="1" style="stop-color:#FB6FBB"/>
			</linearGradient>
			<path style="fill:url(#SVGID_00000072245610125257725310000018124129043718428315_);" d="M2667.551,729.011l-1447.225-49.263
				c-48.426-1.648-87.843,36.499-87.843,85.212v1056.218c0,48.713,39.417,87.295,87.843,86.181l1447.225-33.284
				c41.949-0.965,75.828-38.289,75.828-83.37V813.219C2743.378,768.138,2709.5,730.439,2667.551,729.011z"/>
			<path style="opacity:0.74;fill:#FFFFFF;" d="M1160.609,1798.979V787.469c0-45.081,36.436-80.433,81.213-78.967l1406.99,46.06
				c38.952,1.275,70.418,36.211,70.418,78.037v938.462c0,41.826-31.466,76.415-70.418,77.26l-1406.989,30.525
				C1197.045,1879.816,1160.609,1844.061,1160.609,1798.979z"/>
			
				<linearGradient id="SVGID_00000018207955268166130820000002761245886398396595_" gradientUnits="userSpaceOnUse" x1="1799.3007" y1="260.7139" x2="2072.7046" y2="1354.3336">
				<stop  offset="0" style="stop-color:#AB316D"/>
				<stop  offset="1" style="stop-color:#792D3D"/>
			</linearGradient>
			<path style="fill:url(#SVGID_00000018207955268166130820000002761245886398396595_);" d="M2667.55,729.011l-1447.225-49.263
				c-48.425-1.648-87.843,36.499-87.843,85.211v63.271l1610.897,43.543v-58.554C2743.379,768.138,2709.501,730.44,2667.55,729.011z"
				/>
			<path style="fill:#FFFFFF;" d="M1288.684,761.156c0,15.828-12.746,28.289-28.489,27.832
				c-15.766-0.458-28.565-13.694-28.565-29.564s12.798-28.329,28.565-27.829C1275.938,732.094,1288.684,745.329,1288.684,761.156z"
				/>
			<path style="fill:#FFFFFF;" d="M1388.147,764.175c0,15.754-12.628,28.159-28.225,27.706c-15.62-0.453-28.3-13.626-28.3-29.422
				c0-15.796,12.68-28.199,28.3-27.704C1375.519,735.25,1388.147,748.421,1388.147,764.175z"/>
			<path style="fill:#FFFFFF;" d="M1486.692,767.167c0,15.681-12.511,28.031-27.965,27.582
				c-15.476-0.449-28.039-13.56-28.039-29.282c0-15.723,12.563-28.071,28.039-27.58
				C1474.181,738.376,1486.692,751.485,1486.692,767.167z"/>
			
				<linearGradient id="SVGID_00000163789572582307823260000008264129350790823865_" gradientUnits="userSpaceOnUse" x1="1234.8772" y1="1305.0486" x2="2654.8733" y2="1305.0486">
				<stop  offset="0" style="stop-color:#FF9085"/>
				<stop  offset="1" style="stop-color:#FB6FBB"/>
			</linearGradient>
			<polygon style="fill:url(#SVGID_00000163789572582307823260000008264129350790823865_);" points="2654.873,1507.168 
				1234.877,1513.869 1234.877,1096.228 2654.873,1117.1 			"/>
			<polygon style="fill:#FFFFFF;" points="2654.873,1605.666 1234.877,1619.33 1234.877,1574.483 2654.873,1563.78 			"/>
			<polygon style="fill:#FFFFFF;" points="2654.873,1708.419 1234.877,1729.346 1234.877,1684.499 2654.873,1666.532 			"/>
			<g>
				<polygon style="fill:#FFFFFF;" points="1998.573,1005.737 1234.878,990.767 1234.878,1035.614 1998.573,1048.992 				"/>
				<polygon style="fill:#FFFFFF;" points="2573.844,1017.013 2573.844,1059.069 2654.874,1060.488 2654.874,1018.602 				"/>
			</g>
			<g style="opacity:0.5;">
				<path style="fill:#FFFFFF;" d="M2104.288,1270.051c-169.071-246.015-461.518-168.374-646.393-439.959
					c-33.331-48.963-55.946-98.766-71.456-144.689l-166.113-5.654c-48.425-1.648-87.844,36.499-87.844,85.211v1056.218
					c0,48.712,39.418,87.295,87.844,86.181l1100.683-25.314c-32.94-47.35-63.348-100.263-89.08-159.374
					C2133.261,1496.008,2206.334,1418.536,2104.288,1270.051z"/>
			</g>
		</g>
		<g>
			
				<linearGradient id="SVGID_00000106866812243161745310000009850371461126284943_" gradientUnits="userSpaceOnUse" x1="2042.0518" y1="1784.2567" x2="3122.9719" y2="1784.2567">
				<stop  offset="0.0036" style="stop-color:#E38DDD"/>
				<stop  offset="1" style="stop-color:#9571F6"/>
			</linearGradient>
			<path style="fill:url(#SVGID_00000106866812243161745310000009850371461126284943_);" d="M3050.883,979.748l-929.135-9.795
				c-43.938-0.463-79.697,36.77-79.697,83.164v1466.753c0,46.394,35.758,81.541,79.697,78.514l929.135-64.002
				c39.88-2.747,72.089-40.6,72.089-84.558V1060.1C3122.972,1016.143,3090.763,980.169,3050.883,979.748z"/>
			<path style="opacity:0.74;fill:#FFFFFF;" d="M2067.566,2497.58V1073.917c0-42.938,33.057-77.44,73.689-77.065l891.816,8.24
				c37.027,0.342,66.941,33.678,66.941,74.46v1352.16c0,40.781-29.914,75.863-66.941,78.365l-891.816,60.27
				C2100.624,2573.092,2067.566,2540.518,2067.566,2497.58z"/>
			
				<linearGradient id="SVGID_00000039827917062676167920000000882418150283738531_" gradientUnits="userSpaceOnUse" x1="2589.1404" y1="1022.7782" x2="2481.7354" y2="1993.5597">
				<stop  offset="0" style="stop-color:#40447E"/>
				<stop  offset="0.9964" style="stop-color:#3C3B6B"/>
			</linearGradient>
			<path style="fill:url(#SVGID_00000039827917062676167920000000882418150283738531_);" d="M3050.883,979.748l-929.135-9.795
				c-43.938-0.463-79.697,36.769-79.697,83.164v60.26l1080.921,3.819V1060.1C3122.972,1016.143,3090.763,980.169,3050.883,979.748z"
				/>
			<path style="fill:#FFFFFF;" d="M2183.788,1045.95c0,15.08-11.569,27.24-25.858,27.161c-14.309-0.079-25.924-12.399-25.924-27.516
				c0-15.118,11.615-27.278,25.924-27.161C2172.219,1018.551,2183.788,1030.87,2183.788,1045.95z"/>
			<path style="fill:#FFFFFF;" d="M2274.091,1046.569c0,15.013-11.467,27.12-25.63,27.042
				c-14.183-0.078-25.695-12.343-25.695-27.394s11.512-27.158,25.695-27.041C2262.624,1019.292,2274.091,1031.556,2274.091,1046.569
				z"/>
			<path style="fill:#FFFFFF;" d="M2363.6,1047.183c0,14.947-11.366,27.001-25.405,26.923
				c-14.058-0.078-25.469-12.288-25.469-27.272c0-14.984,11.411-27.038,25.469-26.923
				C2352.234,1020.026,2363.6,1032.236,2363.6,1047.183z"/>
			
				<linearGradient id="SVGID_00000131365023816156584060000004573561489498378645_" gradientUnits="userSpaceOnUse" x1="2134.9534" y1="1790.6798" x2="3038.833" y2="1790.6798">
				<stop  offset="0.0036" style="stop-color:#E38DDD"/>
				<stop  offset="1" style="stop-color:#9571F6"/>
			</linearGradient>
			<polygon style="fill:url(#SVGID_00000131365023816156584060000004573561489498378645_);" points="3038.833,2177.204 
				2134.953,2222.944 2134.953,1366.368 3038.833,1358.416 			"/>
			<polygon style="fill:#FFFFFF;" points="3038.833,2273.236 2134.953,2323.409 2134.953,2280.686 3038.833,2232.398 			"/>
			<polygon style="fill:#FFFFFF;" points="3038.833,2373.417 2134.953,2428.213 2134.953,2385.49 3038.833,2332.579 			"/>
			<g>
				<polygon style="fill:#FFFFFF;" points="2829.168,1263.199 2134.954,1265.903 2134.954,1308.626 2829.168,1304.474 				"/>
				<polygon style="fill:#FFFFFF;" points="2961.818,1262.683 2961.818,1303.681 3038.833,1303.221 3038.833,1262.383 				"/>
			</g>
			<g style="opacity:0.15;">
				<path style="fill:#FFFFFF;" d="M2806.739,1856.42c-149.4-196.689-336.828-202.32-441.206-412.793
					c-75.559-152.361-64.841-325.841-31.305-471.434l-212.48-2.24c-43.938-0.463-79.695,36.769-79.695,83.163v1466.753
					c0,46.394,35.757,81.541,79.695,78.514l835.382-57.545C2982.844,2169.385,2893.463,1970.594,2806.739,1856.42z"/>
			</g>
		</g>
		
			<linearGradient id="SVGID_00000045581404160215376560000005858530547433271452_" gradientUnits="userSpaceOnUse" x1="1133.894" y1="1011.9828" x2="237.1693" y2="2805.4282">
			<stop  offset="0" style="stop-color:#FB6FBB"/>
			<stop  offset="1" style="stop-color:#FF9085"/>
		</linearGradient>
		<path style="fill:url(#SVGID_00000045581404160215376560000005858530547433271452_);" d="M759.317,2277.904
			c0,0-329.822-631.201,119.298-1045.233l-98.245-30.409l322.805-53.801l-123.976,238.595l-30.409-83.374
			C948.789,1303.681,619.094,1553.977,759.317,2277.904z"/>
		<path style="opacity:0.69;fill:#FFFFFF;" d="M899.77,2462.183c0,0,641.266,309.798,1040.962-152.127l33.485,97.24l43.617-324.338
			l-234.576,131.422l84.29,27.771C1867.548,2242.15,1627.75,2579.558,899.77,2462.183z"/>
		<g>
			
				<linearGradient id="SVGID_00000021118100943387404440000002477341682889813158_" gradientUnits="userSpaceOnUse" x1="1247.9604" y1="2124.4238" x2="809.9399" y2="2960.239">
				<stop  offset="0" style="stop-color:#AA80F9"/>
				<stop  offset="0.9964" style="stop-color:#6165D7"/>
			</linearGradient>
			<path style="fill:url(#SVGID_00000021118100943387404440000002477341682889813158_);" d="M763,3204.108
				c-51.079-4.052-116.427-18.247-179.15-59.253c-67.862-44.366-156.249-135.543-133.179-192.996
				c8.613-21.449,33.411-39.816,55.21-38.066c32.204,2.586,35.953,47.318,91.875,95.973c10.335,8.992,63.768,55.482,90.331,39.817
				c13.206-7.788,17.111-29.369,14.957-45.777c-6.297-47.974-64.872-55.342-121.182-107.276
				c-57.09-52.655-104.68-144.506-77.477-206.605c15.632-35.686,56.982-63.869,84.163-55.948
				c11.616,3.385,18.98,12.88,54.249,89.073c28.948,62.538,35.386,80.768,54.049,86.697c19.21,6.104,49.077-1.555,60.428-20.481
				c29.564-49.291-98.212-122.068-109.816-260.012c-5.2-61.817,11.524-153.438,67.504-173.077
				c37.844-13.276,91.759,7,111.249,41.718c17.57,31.298-3.774,54.846,9.63,125.155c4.067,21.336,12.437,65.241,30.102,67.544
				c20.738,2.704,43.94-53.278,49.303-66.911c40.373-102.643-5.921-155.424,32.147-205.251
				c29.685-38.854,94.276-54.459,145.445-34.834c44.775,17.174,80.595,61.832,82.988,108.113
				c2.435,47.088-37.17,93.965-116.379,187.718c-37.563,44.459-67.449,74.497-65.749,118.688c0.828,21.542,9.37,51.843,24.8,54.611
				c34.055,6.108,50.817-131.022,131.527-152.199c41.312-10.84,92.649,10.465,115.207,47.703
				c27.64,45.626,9.122,110.295-25.602,144.3c-45.305,44.368-91.768,10.65-177.015,58.307
				c-37.818,21.142-97.25,66.114-88.547,103.304c3.788,16.193,20.76,32.049,39.387,34.164c41.751,4.739,55.54-63.685,122.664-93.763
				c48.36-21.67,115.231-19.326,131.115,7.946c22.425,38.503-57.221,125.916-99.565,164.541
				C1116.482,3113.725,995.757,3202.27,763,3204.108z"/>
			<path style="opacity:0.5;fill:#FFFFFF;" d="M785.938,3182.175c-6.75-114.44,69.051-347.544,124.201-457.743
				c53.962-107.827,105.586-278.419,106.102-280.129l3.358,1.011c-0.516,1.713-52.224,172.59-106.321,280.688
				c-54.978,109.856-130.554,342.098-123.838,455.968L785.938,3182.175z"/>
		</g>
		
			<linearGradient id="SVGID_00000073712653891130325490000016770653552395069611_" gradientUnits="userSpaceOnUse" x1="941.8488" y1="2753.2864" x2="439.0909" y2="3355.9897">
			<stop  offset="0.0036" style="stop-color:#E38DDD"/>
			<stop  offset="1" style="stop-color:#9571F6"/>
		</linearGradient>
		<path style="fill:url(#SVGID_00000073712653891130325490000016770653552395069611_);" d="M642.604,3219.03
			c-38.462-53.399-94.882-149.747-104.999-278.651c-4.169-53.115-12.311-156.856,51.153-246.344
			c31.632-44.602,98.713-110.566,144.037-91.538c29.164,12.244,47.269,58.816,39.038,94.23
			c-8.299,35.708-38.479,39.017-71.345,99.615c-12.162,22.423-26.056,48.745-15.382,63.615c8.914,12.419,33.404,14.678,51.766,7.231
			c37.929-15.385,26.077-62.607,67.082-96.478c29.157-24.085,77.762-35.406,98.737-15.68c18.212,17.128,15.039,57.142-1.053,83.815
			c-25.769,42.71-71.975,30.181-102.099,76.874c-13.364,20.715-22.865,52.004-11.168,64.375
			c13.328,14.096,52.55,1.906,77.688-13.677c33.189-20.573,34.414-42.464,56.272-45.208c24.38-3.061,54.86,20.157,59.627,45.843
			c6.676,35.976-37.461,74.776-72.411,91.633c-44.744,21.581-77.99,8.915-99.843,38.399c-8.02,10.821-15.368,28.482-8.79,39.201
			c9.383,15.291,43.297,10.243,65.815,6.891c54.803-8.157,69.891-28.031,89.528-18.375c19.882,9.776,30.136,42.797,21.538,65.961
			c-4.778,12.874-19.133,32.813-90.263,45.299C837.744,3244.799,754.097,3250.947,642.604,3219.03z"/>
	</g>
</g>
</svg>
